<?xml version="1.0" encoding="UTF-8" standalone="no"?>
<!-- Created with Inkscape (http://www.inkscape.org/) -->

<svg
   width="602.73718"
   height="139.51157"
   viewBox="0 0 159.47421 36.912436"
   version="1.1"
   id="svg1"
   inkscape:version="1.4.3 (0d15f75, 2025-12-25)"
   sodipodi:docname="logo.svg"
   inkscape:export-filename="Chomp Type Test.png"
   inkscape:export-xdpi="300"
   inkscape:export-ydpi="300"
   xmlns:inkscape="http://www.inkscape.org/namespaces/inkscape"
   xmlns:sodipodi="http://sodipodi.sourceforge.net/DTD/sodipodi-0.dtd"
   xmlns="http://www.w3.org/2000/svg"
   xmlns:svg="http://www.w3.org/2000/svg">
  <sodipodi:namedview
     id="namedview1"
     pagecolor="#ffffff"
     bordercolor="#d4d4d4"
     borderopacity="1"
     inkscape:showpageshadow="0"
     inkscape:pageopacity="1"
     inkscape:pagecheckerboard="false"
     inkscape:deskcolor="#f5f5f5"
     inkscape:document-units="px"
     showgrid="false"
     inkscape:zoom="1.4148187"
     inkscape:cx="306.75308"
     inkscape:cy="79.162086"
     inkscape:window-width="1841"
     inkscape:window-height="1080"
     inkscape:window-x="26"
     inkscape:window-y="0"
     inkscape:window-maximized="0"
     inkscape:current-layer="layer1"
     showborder="false"
     borderlayer="true"
     shape-rendering="auto">
    <inkscape:grid
       id="grid1"
       units="in"
       originx="-12.85434"
       originy="-20.284704"
       spacingx="3.175"
       spacingy="3.175"
       empcolor="#0099e5"
       empopacity="0.30196078"
       color="#0099e5"
       opacity="0.14901961"
       empspacing="4"
       dotted="false"
       gridanglex="30"
       gridanglez="30"
       visible="false" />
  </sodipodi:namedview>
  <defs
     id="defs1" />
  <g
     inkscape:label="logo"
     inkscape:groupmode="layer"
     id="layer1"
     transform="translate(-12.85434,-20.284703)">
    <path
       d="m 25.24567,23.658143 -0.617361,4.652262 q -0.319706,-0.08819 -0.639411,-0.121267 -0.319705,-0.03307 -0.63941,-0.03307 -0.8158,0 -1.554429,0.220486 -0.738629,0.209462 -1.311894,0.650435 -0.56224,0.440972 -0.903993,1.102431 -0.33073,0.661459 -0.33073,1.554429 0,0.573265 0.176389,0.992189 0.187413,0.418924 0.518143,0.694532 0.330729,0.275607 0.782726,0.407899 0.451997,0.132292 0.992189,0.132292 0.4079,0 0.848872,-0.08819 0.440973,-0.08819 0.870921,-0.231511 0.429949,-0.143316 0.837848,-0.33073 0.4079,-0.187413 0.749654,-0.385851 l -0.440973,5.181429 q -0.429948,0.220486 -0.937067,0.396876 -0.496094,0.165364 -1.025261,0.297656 -0.529167,0.121268 -1.058334,0.187413 -0.529168,0.06615 -1.014238,0.06615 -1.400088,0 -2.612763,-0.518142 -1.212675,-0.518143 -2.105644,-1.422137 -0.89297,-0.903994 -1.411113,-2.127693 -0.507118,-1.234724 -0.507118,-2.656861 0,-1.885158 0.540191,-3.54983 0.540192,-1.675696 1.587502,-2.932468 1.04731,-1.256772 2.590714,-1.984377 1.554429,-0.727605 3.571879,-0.727605 0.760678,0 1.554429,0.121267 0.804775,0.121268 1.488282,0.451997 z m 14.144199,7.055563 q 0,1.003213 -0.231511,1.94028 -0.23151,0.926043 -0.672483,1.741842 -0.429948,0.815799 -1.058334,1.499307 -0.617362,0.672483 -1.400089,1.157553 -0.771702,0.48507 -1.68672,0.760678 -0.915018,0.264584 -1.94028,0.264584 -0.992188,0 -1.896182,-0.25356 -0.89297,-0.253559 -1.675696,-0.705556 -0.782727,-0.463021 -1.422137,-1.102431 -0.628386,-0.650435 -1.080383,-1.433162 -0.440973,-0.79375 -0.694532,-1.697744 -0.242535,-0.903994 -0.242535,-1.885159 0,-0.959115 0.23151,-1.874133 0.231511,-0.926043 0.661459,-1.741842 0.440973,-0.8158 1.058335,-1.499308 0.617362,-0.683507 1.378039,-1.179601 0.771703,-0.496095 1.664672,-0.771703 0.89297,-0.275608 1.885158,-0.275608 1.598526,0 2.91042,0.496095 1.322918,0.496094 2.248961,1.422137 0.937067,0.915018 1.444185,2.226912 0.518143,1.300869 0.518143,2.910419 z m -4.894797,0.286632 q 0,-0.474045 -0.143316,-0.915018 -0.132292,-0.451997 -0.396875,-0.793751 -0.264584,-0.352778 -0.661459,-0.56224 -0.385851,-0.220486 -0.89297,-0.220486 -0.518143,0 -0.926042,0.187413 -0.4079,0.187414 -0.705557,0.518143 -0.286632,0.319705 -0.440972,0.760678 -0.154341,0.429948 -0.154341,0.915018 0,0.463022 0.132292,0.926043 0.132292,0.463021 0.396875,0.837848 0.264584,0.374827 0.650435,0.606337 0.396876,0.231511 0.915018,0.231511 0.518143,0 0.926043,-0.198438 0.418924,-0.209462 0.705556,-0.551216 0.286633,-0.352778 0.440973,-0.804775 0.15434,-0.451997 0.15434,-0.937067 z m 18.586999,-2.469447 q 0,0.859897 -0.15434,1.565453 -0.143316,0.694532 -0.463021,1.278821 -0.319706,0.584289 -0.826824,1.080383 -0.507119,0.496094 -1.223699,0.948091 l 2.623787,4.674311 -4.960943,0.97014 -1.697744,-4.696359 -1.367016,0.0441 -0.198437,4.586116 h -4.740457 q 0.05512,-2.513544 0.09922,-5.00504 0.05512,-2.491496 0.121268,-5.00504 0.02205,-1.267796 0.0441,-2.513544 0.02205,-1.245748 0.08819,-2.513544 0.771702,-0.286633 1.521355,-0.474046 0.749654,-0.187413 1.499307,-0.286632 0.760678,-0.110243 1.53238,-0.143316 0.782727,-0.0441 1.598526,-0.0441 1.256772,0 2.42535,0.352779 1.179602,0.341753 2.083596,1.036285 0.903994,0.694532 1.444185,1.730818 0.551216,1.036286 0.551216,2.414325 z m -4.938894,0.352779 q 0,-0.463022 -0.132291,-0.848873 -0.121268,-0.385851 -0.374827,-0.661459 -0.242535,-0.286632 -0.617362,-0.440972 -0.363802,-0.165365 -0.859897,-0.165365 -0.220486,0 -0.429948,0.03307 -0.209462,0.02205 -0.4079,0.07717 l -0.176389,4.101046 h 0.264584 q 0.474045,0 0.959115,-0.121268 0.496095,-0.121267 0.881946,-0.374826 0.396875,-0.25356 0.63941,-0.650435 0.253559,-0.396876 0.253559,-0.948091 z m 18.096214,1.367015 q 0,0.959115 -0.132292,1.918231 -1.885158,0.121267 -3.748268,0.396875 -1.863109,0.264584 -3.726219,0.529168 0.286632,0.79375 0.89297,1.267796 0.617361,0.474046 1.466234,0.474046 0.440973,0 0.959115,-0.165365 0.529168,-0.165365 1.04731,-0.4079 0.518143,-0.253559 0.992189,-0.540191 0.474046,-0.286633 0.815799,-0.518143 l -0.529167,5.00504 q -0.429948,0.330729 -0.937067,0.56224 -0.496094,0.23151 -1.036285,0.374827 -0.540192,0.143316 -1.091408,0.209462 -0.551216,0.06614 -1.080383,0.06614 -1.091407,0 -1.995401,-0.297656 -0.903994,-0.297657 -1.642623,-0.826824 -0.727605,-0.540191 -1.278821,-1.267796 -0.551216,-0.727605 -0.915018,-1.587502 -0.363803,-0.859897 -0.551216,-1.819012 -0.187414,-0.959116 -0.187414,-1.94028 0,-1.025261 0.187414,-2.050523 0.187413,-1.025261 0.56224,-1.973353 0.385851,-0.948091 0.959115,-1.752866 0.584289,-0.815799 1.355991,-1.422137 0.771703,-0.606337 1.741842,-0.948091 0.981165,-0.341754 2.160767,-0.341754 0.981164,0 1.785939,0.275608 0.815799,0.264584 1.444185,0.749654 0.639411,0.474045 1.102432,1.135504 0.474046,0.661459 0.771702,1.45521 0.308681,0.782727 0.451997,1.664672 0.154341,0.870921 0.154341,1.774915 z M 61.829664,29.67742 q 0,-0.30868 -0.06615,-0.628386 -0.06615,-0.330729 -0.220486,-0.595313 -0.143316,-0.264583 -0.385851,-0.429948 -0.242535,-0.176389 -0.606338,-0.176389 -0.440973,0 -0.782726,0.242535 -0.33073,0.23151 -0.573265,0.595313 -0.242535,0.352778 -0.396875,0.771702 -0.154341,0.418924 -0.231511,0.771702 l 3.263198,-0.308681 z m 18.625784,-5.446012 -5.181429,8.466675 0.154341,6.239763 h -5.666499 l 0.132292,-6.195666 -4.0349,-8.180043 5.622401,-0.705556 1.763891,4.762505 1.918231,-4.762505 z m 5.802486,-2.888371 -1.234724,6.702785 -3.395489,0.110243 -0.683508,-6.702785 z m 11.383208,12.170846 q 0,1.510331 -0.529167,2.612763 -0.518143,1.091407 -1.433161,1.807988 -0.903994,0.705556 -2.127693,1.04731 -1.212675,0.330729 -2.612763,0.330729 -0.540192,0 -1.190627,-0.143316 -0.63941,-0.143316 -1.300869,-0.352778 -0.661459,-0.220486 -1.278821,-0.463021 -0.606337,-0.25356 -1.080383,-0.474046 l 0.48507,-4.321532 q 0.937067,0.56224 2.072572,0.859897 1.146529,0.286632 2.24896,0.286632 0.209462,0 0.507119,-0.01102 0.297657,-0.02205 0.56224,-0.09922 0.275608,-0.08819 0.463021,-0.25356 0.187414,-0.165364 0.187414,-0.474045 0,-0.209462 -0.132292,-0.352778 -0.132292,-0.154341 -0.341754,-0.242535 -0.209462,-0.09922 -0.474045,-0.143316 -0.264584,-0.05512 -0.518143,-0.07717 -0.25356,-0.02205 -0.474046,-0.02205 -0.220486,0 -0.352778,0 -0.948091,0 -1.730818,-0.297657 -0.771702,-0.297656 -1.333942,-0.837848 -0.551216,-0.551216 -0.859897,-1.322918 -0.308681,-0.782726 -0.308681,-1.730818 0,-1.300869 0.518143,-2.326131 0.529167,-1.036285 1.400088,-1.752866 0.881946,-0.727605 2.01745,-1.113456 1.135505,-0.385851 2.34818,-0.385851 0.540191,0 1.113456,0.0441 0.573264,0.03307 1.135504,0.132292 0.573265,0.09922 1.113456,0.253559 0.540192,0.154341 1.025262,0.385851 l -0.418924,4.475873 q -0.749654,-0.253559 -1.576477,-0.418924 -0.8158,-0.176389 -1.598526,-0.176389 -0.143316,0 -0.374827,0.01102 -0.220486,0 -0.474046,0.03307 -0.242535,0.02205 -0.496094,0.07717 -0.253559,0.05512 -0.451997,0.154341 -0.198438,0.08819 -0.319705,0.242535 -0.121268,0.15434 -0.110243,0.363802 0.01102,0.242535 0.176389,0.374827 0.176389,0.132292 0.440972,0.198438 0.275608,0.05512 0.595313,0.05512 0.33073,0 0.650435,-0.01102 0.319705,-0.02205 0.595313,-0.03307 0.275608,-0.02205 0.451997,-0.01102 0.881946,0.05512 1.587502,0.374827 0.705556,0.319705 1.190626,0.848872 0.496094,0.529167 0.749654,1.267796 0.264583,0.727605 0.264583,1.609551 z"
       id="text1154"
       style="font-size:22.5778px;line-height:1.25;font-family:'Luckiest Guy';-inkscape-font-specification:'Luckiest Guy, Normal';fill:#333333;stroke-width:0.264583"
       inkscape:label="corey shadow"
       aria-label="Corey's" />
    <path
       style="font-size:22.5778px;line-height:1.25;font-family:'Luckiest Guy';-inkscape-font-specification:'Luckiest Guy, Normal';fill:#886289;stroke-width:0.264583"
       d="m 24.187338,22.599809 -0.617362,4.652262 q -0.319705,-0.0882 -0.63941,-0.121268 -0.319705,-0.03307 -0.639411,-0.03307 -0.815799,0 -1.554428,0.220487 -0.738629,0.209462 -1.311894,0.650434 -0.56224,0.440973 -0.903994,1.102432 -0.330729,0.661459 -0.330729,1.554429 0,0.573264 0.176389,0.992188 0.187413,0.418924 0.518143,0.694532 0.330729,0.275608 0.782726,0.4079 0.451997,0.132292 0.992189,0.132292 0.407899,0 0.848872,-0.08819 0.440973,-0.08819 0.870921,-0.23151 0.429948,-0.143317 0.837848,-0.33073 0.4079,-0.187413 0.749654,-0.385851 l -0.440973,5.181429 q -0.429948,0.220486 -0.937067,0.396875 -0.496094,0.165365 -1.025262,0.297657 -0.529167,0.121267 -1.058334,0.187413 -0.529167,0.06615 -1.014237,0.06615 -1.400088,0 -2.612763,-0.518143 -1.212675,-0.518143 -2.105645,-1.422137 -0.892969,-0.903994 -1.411112,-2.127693 -0.507119,-1.234723 -0.507119,-2.65686 0,-1.885158 0.540192,-3.54983 0.540191,-1.675696 1.587501,-2.932468 1.04731,-1.256773 2.590715,-1.984377 1.554428,-0.727605 3.571878,-0.727605 0.760678,0 1.554429,0.121267 0.804775,0.121268 1.488283,0.451997 z m 14.144199,7.055563 q 0,1.003213 -0.231511,1.94028 -0.231511,0.926042 -0.672483,1.741842 -0.429949,0.815799 -1.058335,1.499307 -0.617362,0.672483 -1.400088,1.157553 -0.771702,0.48507 -1.68672,0.760678 -0.915019,0.264583 -1.94028,0.264583 -0.992189,0 -1.896183,-0.253559 -0.892969,-0.253559 -1.675696,-0.705556 -0.782726,-0.463021 -1.422137,-1.102432 -0.628386,-0.650434 -1.080383,-1.433161 -0.440972,-0.793751 -0.694532,-1.697745 -0.242535,-0.903994 -0.242535,-1.885158 0,-0.959115 0.231511,-1.874134 0.231511,-0.926042 0.661459,-1.741842 0.440973,-0.815799 1.058334,-1.499307 0.617362,-0.683508 1.37804,-1.179602 0.771702,-0.496094 1.664672,-0.771702 0.892969,-0.275608 1.885158,-0.275608 1.598526,0 2.91042,0.496094 1.322918,0.496095 2.24896,1.422137 0.937067,0.915019 1.444186,2.226912 0.518143,1.30087 0.518143,2.91042 z m -4.894797,0.286632 q 0,-0.474046 -0.143316,-0.915018 -0.132292,-0.451997 -0.396876,-0.793751 -0.264583,-0.352778 -0.661459,-0.56224 -0.385851,-0.220487 -0.892969,-0.220487 -0.518143,0 -0.926043,0.187414 -0.4079,0.187413 -0.705556,0.518143 -0.286632,0.319705 -0.440973,0.760678 -0.15434,0.429948 -0.15434,0.915018 0,0.463021 0.132292,0.926043 0.132291,0.463021 0.396875,0.837848 0.264584,0.374826 0.650435,0.606337 0.396875,0.231511 0.915018,0.231511 0.518143,0 0.926043,-0.198438 0.418924,-0.209462 0.705556,-0.551216 0.286632,-0.352778 0.440973,-0.804775 0.15434,-0.451997 0.15434,-0.937067 z m 18.586999,-2.469447 q 0,0.859897 -0.154341,1.565453 -0.143316,0.694532 -0.463021,1.278821 -0.319705,0.584289 -0.826824,1.080383 -0.507118,0.496094 -1.223699,0.948091 l 2.623788,4.67431 -4.960943,0.97014 -1.697745,-4.696359 -1.367015,0.0441 -0.198438,4.586115 h -4.740456 q 0.05512,-2.513544 0.09922,-5.005039 0.05512,-2.491496 0.121267,-5.00504 0.02205,-1.267797 0.0441,-2.513544 0.02205,-1.245748 0.08819,-2.513545 0.771702,-0.286632 1.521356,-0.474045 0.749653,-0.187414 1.499307,-0.286633 0.760678,-0.110243 1.53238,-0.143316 0.782726,-0.0441 1.598526,-0.0441 1.256772,0 2.42535,0.352778 1.179602,0.341754 2.083595,1.036286 0.903994,0.694532 1.444186,1.730818 0.551216,1.036286 0.551216,2.414325 z m -4.938894,0.352778 q 0,-0.463021 -0.132292,-0.848872 -0.121267,-0.385851 -0.374827,-0.661459 -0.242535,-0.286632 -0.617361,-0.440973 -0.363803,-0.165365 -0.859897,-0.165365 -0.220486,0 -0.429948,0.03307 -0.209462,0.02205 -0.4079,0.07717 l -0.176389,4.101045 h 0.264583 q 0.474046,0 0.959116,-0.121267 0.496094,-0.121268 0.881945,-0.374827 0.396876,-0.253559 0.639411,-0.650435 0.253559,-0.396875 0.253559,-0.948091 z m 18.096213,1.367016 q 0,0.959115 -0.132292,1.918231 -1.885158,0.121267 -3.748267,0.396875 -1.86311,0.264584 -3.726219,0.529167 0.286632,0.793751 0.892969,1.267797 0.617362,0.474045 1.466234,0.474045 0.440973,0 0.959116,-0.165364 0.529167,-0.165365 1.04731,-0.4079 0.518143,-0.253559 0.992189,-0.540192 0.474045,-0.286632 0.815799,-0.518143 l -0.529167,5.00504 q -0.429949,0.33073 -0.937067,0.56224 -0.496094,0.231511 -1.036286,0.374827 -0.540191,0.143316 -1.091407,0.209462 -0.551216,0.06615 -1.080383,0.06615 -1.091408,0 -1.995402,-0.297656 -0.903994,-0.297657 -1.642623,-0.826824 -0.727605,-0.540192 -1.278821,-1.267797 -0.551215,-0.727605 -0.915018,-1.587501 -0.363802,-0.859897 -0.551216,-1.819013 -0.187413,-0.959115 -0.187413,-1.940279 0,-1.025262 0.187413,-2.050523 0.187414,-1.025262 0.56224,-1.973353 0.385852,-0.948091 0.959116,-1.752866 0.584289,-0.8158 1.355991,-1.422137 0.771702,-0.606338 1.741842,-0.948091 0.981164,-0.341754 2.160766,-0.341754 0.981164,0 1.785939,0.275608 0.8158,0.264583 1.444186,0.749653 0.63941,0.474046 1.102432,1.135505 0.474045,0.661459 0.771702,1.45521 0.308681,0.782726 0.451997,1.664672 0.15434,0.870921 0.15434,1.774915 z m -4.409727,-0.573265 q 0,-0.308681 -0.06615,-0.628386 -0.06615,-0.33073 -0.220487,-0.595313 -0.143316,-0.264584 -0.385851,-0.429948 -0.242535,-0.17639 -0.606337,-0.17639 -0.440973,0 -0.782727,0.242535 -0.330729,0.231511 -0.573264,0.595314 -0.242535,0.352778 -0.396876,0.771702 -0.15434,0.418924 -0.23151,0.771702 l 3.263197,-0.308681 z m 18.625785,-5.446012 -5.181429,8.466675 0.15434,6.239763 h -5.666499 l 0.132292,-6.195666 -4.0349,-8.180043 5.622402,-0.705556 1.76389,4.762505 1.918231,-4.762505 z m 5.802485,-2.888371 -1.234723,6.702784 -3.39549,0.110243 -0.683508,-6.702784 z M 96.58281,32.455548 q 0,1.510332 -0.529167,2.612763 -0.518143,1.091408 -1.433162,1.807988 -0.903994,0.705557 -2.127693,1.04731 -1.212675,0.33073 -2.612763,0.33073 -0.540191,0 -1.190626,-0.143316 -0.63941,-0.143316 -1.300869,-0.352778 -0.661459,-0.220487 -1.278821,-0.463022 -0.606338,-0.253559 -1.080383,-0.474045 l 0.48507,-4.321532 q 0.937067,0.56224 2.072571,0.859896 1.146529,0.286632 2.248961,0.286632 0.209462,0 0.507119,-0.01102 0.297656,-0.02205 0.56224,-0.09922 0.275608,-0.08819 0.463021,-0.253559 0.187413,-0.165365 0.187413,-0.474046 0,-0.209462 -0.132291,-0.352778 -0.132292,-0.15434 -0.341754,-0.242535 -0.209462,-0.09922 -0.474046,-0.143316 -0.264583,-0.05512 -0.518143,-0.07717 -0.253559,-0.02205 -0.474045,-0.02205 -0.220487,0 -0.352779,0 -0.948091,0 -1.730817,-0.297656 -0.771702,-0.297657 -1.333943,-0.837848 -0.551215,-0.551216 -0.859896,-1.322918 -0.308681,-0.782727 -0.308681,-1.730818 0,-1.300869 0.518143,-2.326131 0.529167,-1.036286 1.400088,-1.752866 0.881945,-0.727605 2.01745,-1.113456 1.135505,-0.385851 2.348179,-0.385851 0.540192,0 1.113456,0.0441 0.573265,0.03307 1.135505,0.132292 0.573264,0.09922 1.113456,0.253559 0.540192,0.15434 1.025261,0.385851 l -0.418924,4.475873 q -0.749653,-0.25356 -1.576477,-0.418924 -0.815799,-0.176389 -1.598526,-0.176389 -0.143316,0 -0.374827,0.01102 -0.220486,0 -0.474045,0.03307 -0.242535,0.02205 -0.496094,0.07717 -0.25356,0.05512 -0.451997,0.154341 -0.198438,0.08819 -0.319706,0.242535 -0.121267,0.15434 -0.110243,0.363802 0.01103,0.242535 0.176389,0.374827 0.176389,0.132292 0.440973,0.198437 0.275608,0.05512 0.595313,0.05512 0.33073,0 0.650435,-0.01102 0.319705,-0.02205 0.595313,-0.03307 0.275608,-0.02205 0.451997,-0.01103 0.881945,0.05512 1.587501,0.374827 0.705557,0.319705 1.190627,0.848873 0.496094,0.529167 0.749653,1.267796 0.264584,0.727605 0.264584,1.60955 z"
       id="text1-0-8-8-4"
       inkscape:label="corey"
       aria-label="Corey's" />
    <path
       d="m 54.913764,45.70362 q -0.127,-0.444501 -0.254,-0.867835 -0.127,-0.4445 -0.232834,-0.825501 -0.08467,-0.402167 -0.169333,-0.740834 -0.08467,-0.338668 -0.127001,-0.571501 h -0.08467 q -0.04233,0.232833 -0.127001,0.571501 -0.0635,0.338667 -0.169333,0.740834 -0.08467,0.402167 -0.211667,0.846668 -0.105834,0.423334 -0.254001,0.867835 l -2.032003,6.371177 h -2.11667 L 46.02375,40.750612 h 1.92617 l 1.566336,6.053676 q 0.169333,0.613835 0.3175,1.248836 0.148167,0.613834 0.254001,1.185335 0.127,0.550334 0.169333,0.952502 h 0.08467 q 0.0635,-0.254001 0.148167,-0.635001 0.08467,-0.381001 0.169334,-0.804335 0.105833,-0.423334 0.211667,-0.846668 0.127,-0.423334 0.232833,-0.762001 l 2.010837,-6.392344 h 2.032003 l 1.947336,6.392344 q 0.148167,0.486834 0.296334,1.037168 0.169334,0.550334 0.296334,1.079502 0.127,0.508001 0.169334,0.910168 h 0.08467 q 0.04233,-0.359834 0.148167,-0.889002 0.127001,-0.550334 0.275167,-1.185335 0.169334,-0.656168 0.338668,-1.291169 l 1.587502,-6.053676 h 1.905003 l -3.153838,11.345352 h -2.18017 z m 17.854665,0.719668 q 0,1.418169 -0.381,2.518837 -0.359834,1.079502 -1.058335,1.841503 -0.677335,0.762001 -1.67217,1.164169 -0.973668,0.381 -2.18017,0.381 -1.121835,0 -2.074336,-0.381 -0.952502,-0.402168 -1.651003,-1.164169 -0.698501,-0.762001 -1.100668,-1.841503 -0.381001,-1.100668 -0.381001,-2.518837 0,-1.883836 0.635001,-3.175005 0.635001,-1.312336 1.820336,-1.98967 1.185335,-0.698501 2.815171,-0.698501 1.54517,0 2.709338,0.698501 1.185335,0.677334 1.841503,1.98967 0.677334,1.291169 0.677334,3.175005 z m -8.572513,0 q 0,1.333502 0.338667,2.328337 0.359834,0.973668 1.100668,1.502836 0.740835,0.529167 1.883837,0.529167 1.143001,0 1.883836,-0.529167 0.740835,-0.529168 1.079502,-1.502836 0.359834,-0.994835 0.359834,-2.328337 0,-1.354669 -0.359834,-2.30717 -0.359834,-0.952502 -1.100669,-1.460503 -0.719668,-0.529167 -1.883836,-0.529167 -1.735669,0 -2.518837,1.143002 -0.783168,1.143001 -0.783168,3.153838 z m 15.219531,-5.863176 q 0.3175,0 0.677334,0.04233 0.381001,0.02117 0.656168,0.08467 l -0.232834,1.714503 q -0.275167,-0.0635 -0.613834,-0.105834 -0.317501,-0.04233 -0.613834,-0.04233 -0.656168,0 -1.248836,0.275167 -0.592667,0.275167 -1.058335,0.783168 -0.465667,0.486834 -0.740834,1.185335 -0.254001,0.698501 -0.254001,1.566336 V 52.11713 H 74.123772 V 40.771779 h 1.524002 l 0.211667,2.074337 h 0.08467 q 0.359834,-0.635001 0.867835,-1.143002 0.508,-0.529168 1.164168,-0.825502 0.656168,-0.3175 1.439336,-0.3175 z m 4.498266,3.873506 q 0,0.338667 -0.04233,0.889001 -0.02117,0.550335 -0.04233,0.952502 h 0.08467 q 0.127,-0.169334 0.381001,-0.486834 0.254,-0.317501 0.508001,-0.635001 0.275167,-0.338667 0.465667,-0.550334 l 3.619506,-3.831173 h 2.18017 l -4.593174,4.847174 4.910674,6.498177 h -2.24367 l -3.937006,-5.291675 -1.291169,1.121835 v 4.16984 H 82.07221 V 36.030438 h 1.841503 z m 20.362377,-3.873506 q 2.09551,0 3.36551,1.460502 1.29117,1.460503 1.29117,4.402674 0,1.92617 -0.59267,3.259672 -0.5715,1.312335 -1.62984,1.98967 -1.03717,0.656167 -2.45533,0.656167 -0.86784,0 -1.54517,-0.232833 -0.67734,-0.232834 -1.16417,-0.592668 -0.46567,-0.381001 -0.80434,-0.825501 h -0.127 q 0.0423,0.359834 0.0847,0.910168 0.0423,0.550334 0.0423,0.952501 v 4.656674 H 98.878584 V 40.771779 h 1.524006 l 0.254,1.545169 h 0.0847 q 0.33867,-0.486834 0.80434,-0.889001 0.48683,-0.402168 1.143,-0.635001 0.67733,-0.232834 1.5875,-0.232834 z m -0.33866,1.566336 q -1.14301,0 -1.84151,0.4445 -0.6985,0.423334 -1.016,1.291169 -0.3175,0.867835 -0.33867,2.201337 v 0.359834 q 0,1.397002 0.29634,2.37067 0.29633,0.973669 0.99483,1.481669 0.71967,0.508001 1.94734,0.508001 1.03717,0 1.69333,-0.571501 0.67734,-0.571501 0.99484,-1.545169 0.33867,-0.994835 0.33867,-2.264837 0,-1.947336 -0.762,-3.111505 -0.74084,-1.164168 -2.30717,-1.164168 z m 12.06023,-1.566336 q 0.3175,0 0.67733,0.04233 0.381,0.02117 0.65617,0.08467 l -0.23283,1.714503 q -0.27517,-0.0635 -0.61384,-0.105834 -0.3175,-0.04233 -0.61383,-0.04233 -0.65617,0 -1.24884,0.275167 -0.59266,0.275167 -1.05833,0.783168 -0.46567,0.486834 -0.74084,1.185335 -0.254,0.698501 -0.254,1.566336 v 6.053676 h -1.86267 V 40.771779 h 1.52401 l 0.21166,2.074337 h 0.0847 q 0.35983,-0.635001 0.86784,-1.143002 0.508,-0.529168 1.16416,-0.825502 0.65617,-0.3175 1.43934,-0.3175 z m 12.12374,5.863176 q 0,1.418169 -0.381,2.518837 -0.35983,1.079502 -1.05833,1.841503 -0.67734,0.762001 -1.67217,1.164169 -0.97367,0.381 -2.18017,0.381 -1.12184,0 -2.07434,-0.381 -0.9525,-0.402168 -1.651,-1.164169 -0.6985,-0.762001 -1.10067,-1.841503 -0.381,-1.100668 -0.381,-2.518837 0,-1.883836 0.635,-3.175005 0.635,-1.312336 1.82034,-1.98967 1.18533,-0.698501 2.81517,-0.698501 1.54517,0 2.70933,0.698501 1.18534,0.677334 1.84151,1.98967 0.67733,1.291169 0.67733,3.175005 z m -8.57251,0 q 0,1.333502 0.33866,2.328337 0.35984,0.973668 1.10067,1.502836 0.74084,0.529167 1.88384,0.529167 1.143,0 1.88384,-0.529167 0.74083,-0.529168 1.0795,-1.502836 0.35983,-0.994835 0.35983,-2.328337 0,-1.354669 -0.35983,-2.30717 -0.35984,-0.952502 -1.10067,-1.460503 -0.71967,-0.529167 -1.88384,-0.529167 -1.73567,0 -2.51883,1.143002 -0.78317,1.143001 -0.78317,3.153838 z m 9.25552,10.77385 q -0.52916,0 -0.93133,-0.08467 -0.40217,-0.0635 -0.6985,-0.169334 v -1.502836 q 0.3175,0.08467 0.65616,0.148167 0.33867,0.0635 0.74084,0.0635 0.67733,0 1.12183,-0.381 0.4445,-0.359834 0.4445,-1.397003 V 40.771779 h 1.86267 v 13.038687 q 0,1.058335 -0.33866,1.820337 -0.33867,0.762001 -1.03717,1.164168 -0.6985,0.402167 -1.82034,0.402167 z m 1.18534,-19.494531 q 0,-0.613834 0.3175,-0.889001 0.3175,-0.296334 0.78317,-0.296334 0.42333,0 0.74083,0.296334 0.33867,0.275167 0.33867,0.889001 0,0.592668 -0.33867,0.889002 -0.3175,0.296334 -0.74083,0.296334 -0.46567,0 -0.78317,-0.296334 -0.3175,-0.296334 -0.3175,-0.889002 z m 9.19726,2.857505 q 1.4605,0 2.49767,0.635001 1.05833,0.635001 1.60867,1.799169 0.5715,1.143002 0.5715,2.688171 v 1.121835 h -7.76818 q 0.0423,1.92617 0.97367,2.942172 0.9525,0.994835 2.64584,0.994835 1.0795,0 1.905,-0.190501 0.84667,-0.211667 1.73567,-0.592667 v 1.629836 q -0.86784,0.381 -1.7145,0.550334 -0.84667,0.1905 -2.01084,0.1905 -1.60867,0 -2.8575,-0.656167 -1.22767,-0.656168 -1.92617,-1.947337 -0.67734,-1.312335 -0.67734,-3.196172 0,-1.862669 0.61384,-3.196171 0.635,-1.333502 1.75683,-2.05317 1.143,-0.719668 2.64584,-0.719668 z m -0.0212,1.524002 q -1.3335,0 -2.11667,0.867835 -0.762,0.846668 -0.91017,2.37067 h 5.77851 q 0,-0.973668 -0.29633,-1.693336 -0.29633,-0.719667 -0.91017,-1.121835 -0.59267,-0.423334 -1.54517,-0.423334 z m 11.99627,10.244683 q -1.50284,0 -2.68818,-0.613834 -1.16416,-0.613834 -1.8415,-1.905003 -0.65617,-1.291169 -0.65617,-3.302005 0,-2.095504 0.69851,-3.407839 0.6985,-1.312335 1.88383,-1.92617 1.2065,-0.613834 2.73051,-0.613834 0.86783,0 1.67217,0.1905 0.80433,0.169334 1.31233,0.423334 l -0.5715,1.545169 q -0.508,-0.1905 -1.18534,-0.359834 -0.67733,-0.169333 -1.27,-0.169333 -1.143,0 -1.88383,0.486834 -0.74084,0.486834 -1.10067,1.439336 -0.35984,0.952501 -0.35984,2.37067 0,1.354669 0.35984,2.30717 0.35983,0.952502 1.0795,1.439336 0.71967,0.486834 1.79917,0.486834 0.93133,0 1.62983,-0.1905 0.71967,-0.190501 1.31234,-0.465668 v 1.651003 q -0.5715,0.296334 -1.27,0.444501 -0.67734,0.169333 -1.651,0.169333 z m 9.66248,-1.524002 q 0.42333,0 0.86783,-0.0635 0.4445,-0.08467 0.71967,-0.169334 v 1.418169 q -0.29633,0.148167 -0.84667,0.232834 -0.55033,0.105833 -1.05833,0.105833 -0.889,0 -1.651,-0.296334 -0.74084,-0.3175 -1.20651,-1.079501 -0.46566,-0.762001 -0.46566,-2.137837 v -6.60401 h -1.60867 v -0.889002 l 1.62983,-0.740834 0.74084,-2.413004 h 1.10067 v 2.603504 h 3.28083 v 1.439336 h -3.28083 v 6.561677 q 0,1.037168 0.48683,1.545169 0.508,0.486834 1.29117,0.486834 z m 11.50399,-1.820336 q 0,1.100668 -0.55034,1.841503 -0.55033,0.740834 -1.56633,1.121835 -1.01601,0.381 -2.41301,0.381 -1.18533,0 -2.05317,-0.1905 -0.84667,-0.1905 -1.50283,-0.529168 v -1.693336 q 0.67733,0.338668 1.62983,0.635001 0.97367,0.275168 1.9685,0.275168 1.41817,0 2.05317,-0.444501 0.63501,-0.465668 0.63501,-1.227669 0,-0.423334 -0.23284,-0.762001 -0.23283,-0.338667 -0.84667,-0.677334 -0.59266,-0.338668 -1.7145,-0.762002 -1.10067,-0.423334 -1.88384,-0.846668 -0.78316,-0.423334 -1.2065,-1.016001 -0.42333,-0.592668 -0.42333,-1.524003 0,-1.439335 1.16417,-2.222503 1.18533,-0.783168 3.09034,-0.783168 1.03716,0 1.92617,0.211667 0.91016,0.1905 1.69333,0.550334 l -0.635,1.481669 q -0.71967,-0.296334 -1.50284,-0.508001 -0.78316,-0.211667 -1.60866,-0.211667 -1.14301,0 -1.75684,0.381001 -0.59267,0.359834 -0.59267,0.994835 0,0.465667 0.27517,0.804334 0.27517,0.317501 0.91017,0.635001 0.65616,0.296334 1.73567,0.719668 1.0795,0.402168 1.8415,0.825502 0.762,0.423334 1.16417,1.037168 0.40217,0.592668 0.40217,1.502836 z"
       id="text2-9-6-3-5-0-0-1"
       style="font-size:21.1667px;line-height:1.25;font-family:'Noto Sans Display';-inkscape-font-specification:'Noto Sans Display, Normal';font-variant-numeric:slashed-zero;fill:#333333;stroke-width:0.264583"
       inkscape:label="work projects"
       aria-label="work projects" />
  </g>
</svg>
